<svg width="20" height="20" viewBox="0 0 20 20" fill="none" xmlns="http://www.w3.org/2000/svg">
<path fill-rule="evenodd" clip-rule="evenodd" d="M9.78851 0.789398C12.2071 0.801098 14.5413 1.7508 16.2873 3.4245C18.0754 5.1387 19.1058 7.4372 19.1959 9.9125C19.2839 12.3298 18.44 14.7043 16.8393 16.5177C15.0838 18.5066 12.6418 19.6489 10.0043 19.7246C9.91403 19.7272 9.82372 19.7285 9.73341 19.7285C8.31231 19.7285 6.90431 19.408 5.62911 18.7944L0.672307 19.8968C0.660969 19.899 0.649271 19.8985 0.63818 19.8952C0.627088 19.892 0.616922 19.8862 0.60852 19.8783C0.600118 19.8704 0.593722 19.8606 0.58986 19.8497C0.585997 19.8388 0.584779 19.8271 0.586306 19.8157L1.42361 14.8037C0.709007 13.498 0.310107 12.0269 0.267107 10.5306C0.194707 8.0021 1.11111 5.5969 2.84761 3.7578C4.64811 1.8509 7.10691 0.789398 9.74161 0.789398H9.78851ZM9.73581 2.4325C9.66011 2.4325 9.58451 2.4336 9.50841 2.4358C5.19461 2.5595 1.78581 6.1697 1.90961 10.4834C1.94741 11.8006 2.31841 13.0936 2.98271 14.2225L3.12691 14.4672L2.50651 17.8682L5.87211 17.0737L6.12621 17.206C7.23521 17.783 8.47771 18.0854 9.73321 18.0854C9.80781 18.0854 9.88251 18.0844 9.95711 18.0822C14.2709 17.9585 17.6797 14.3484 17.556 10.0346C17.4344 5.797 13.9482 2.4325 9.73581 2.4325ZM6.46201 5.6846C6.62031 5.6894 6.77891 5.6939 6.91711 5.7041C7.08631 5.7162 7.27341 5.7299 7.43931 6.1314C7.63611 6.6082 8.06171 7.7985 8.11751 7.9192C8.17321 8.0399 8.20861 8.18 8.12451 8.3364C8.04041 8.4926 7.99771 8.5905 7.87491 8.7256C7.75191 8.8609 7.61561 9.0279 7.50571 9.1311C7.38281 9.2461 7.25511 9.3711 7.38651 9.6132C7.51781 9.8555 7.97071 10.6486 8.65771 11.3007C9.54071 12.1387 10.2488 12.4152 10.5301 12.5464C10.6315 12.5938 10.7159 12.6162 10.7896 12.6162C10.8907 12.6162 10.9717 12.5739 11.0489 12.4956C11.1969 12.3456 11.6422 11.8259 11.8297 11.5869C11.9278 11.4618 12.0166 11.4175 12.1131 11.4175C12.1903 11.4175 12.2724 11.4459 12.3681 11.4841C12.5835 11.5701 13.734 12.1813 13.968 12.3076C14.202 12.4337 14.3585 12.4981 14.4149 12.599C14.4713 12.7003 14.4565 13.1762 14.2415 13.7254C14.0264 14.2746 13.0399 14.7804 12.603 14.8066C12.4751 14.8143 12.3493 14.8322 12.1854 14.8322C11.7896 14.8322 11.1722 14.7279 9.76991 14.124C7.38411 13.0966 5.93521 10.572 5.82121 10.4098C5.70751 10.2473 4.89061 9.0905 4.92661 7.9204C4.96251 6.7504 5.59411 6.1939 5.81931 5.9626C6.03511 5.7408 6.28241 5.6842 6.44211 5.6842L6.46201 5.6846Z" fill="black"/>
</svg>
